<svg width="3840" height="2160" viewBox="0 0 3840 2160" fill="none" xmlns="http://www.w3.org/2000/svg">
<g clip-path="url(#clip0_72_3)">
<mask id="mask0_72_3" style="mask-type:luminance" maskUnits="userSpaceOnUse" x="0" y="0" width="3840" height="2160">
<path d="M3840 0H0V2160H3840V0Z" fill="white"/>
</mask>
<g mask="url(#mask0_72_3)">
<path d="M460.493 2184.94C540.098 2091.98 626.314 2003.06 718.515 1918.8C759.501 1881.34 802.867 1844.07 857.2 1821.76C996.086 1764.75 1162.17 1820.1 1293 1889.35C1413.51 1953.14 1524.98 2029.07 1624.28 2115C1722.7 2200.17 1811 2296.39 1930.22 2359.86C2049.45 2423.32 2213.1 2446.79 2328.31 2378.25C2396.87 2337.47 2438.14 2269.79 2453.75 2200.26C2469.37 2130.73 2461.71 2058.96 2448.34 1989.09C2433.03 1909.1 2410.57 1825.66 2440.51 1748.67C2471.51 1668.98 2561.16 1607.93 2660.03 1599.2C2800.69 1586.78 2924.35 1669.41 3042.89 1734.49C3193.49 1817.17 3368.49 1878.72 3547.87 1870.02C3727.24 1861.32 3908.5 1768.74 3962.3 1624.1" stroke="white" stroke-miterlimit="10"/>
<path d="M479.068 2215.98C557.225 2124.55 642.324 2037.37 733.537 1955.11C774.082 1918.54 816.968 1882.23 870.359 1860.29C977.608 1816.21 1101.1 1838.61 1211.79 1882C1241.95 1893.81 1271.17 1907.18 1298.86 1921.18C1417.93 1981.45 1528.46 2053.79 1627.36 2136.11C1725.35 2217.68 1813.29 2310.73 1931.27 2371.85C1997.42 2406.11 2075.8 2429.58 2153 2433.8C2220.24 2437.45 2286.95 2426.16 2342.72 2393.98C2352.68 2388.23 2362.1 2381.93 2370.99 2375.12C2425.72 2333.19 2458.97 2272.89 2473.52 2211.13C2478.19 2191.29 2481.1 2171.28 2482.66 2151.22C2486.75 2098.83 2481.96 2045.8 2474.83 1994C2463.63 1911.81 2448.71 1827.63 2482.41 1750.81C2515.88 1674.51 2601.84 1615.18 2698.36 1606.25C2835.68 1593.53 2956.85 1671.39 3072.77 1731.9C3081.91 1736.67 3091.14 1741.36 3100.45 1745.95C3241.15 1815.42 3400.41 1863.6 3562.18 1852.55C3734.66 1840.77 3907.64 1748.68 3957.6 1607.32" stroke="#F9F9F9" stroke-miterlimit="10"/>
<path d="M497.643 2247.03C574.346 2157.11 658.33 2071.69 748.559 1991.42C788.659 1955.74 831.068 1920.41 883.528 1898.82C988.856 1855.46 1109.87 1875.67 1218.8 1916.24C1248.52 1927.28 1277.35 1939.83 1304.72 1953.01C1422.36 2009.75 1531.96 2078.53 1630.45 2157.22C1728.03 2235.19 1815.66 2324.98 1932.34 2383.84C2001 2418.47 2081.43 2442.94 2160.98 2448.21C2230.11 2452.74 2299.29 2442.1 2357.14 2409.7C2367.49 2403.91 2377.3 2397.52 2386.55 2390.58C2443.57 2347.84 2477.62 2285.69 2493.29 2222.01C2498.31 2201.58 2501.59 2180.97 2503.59 2160.37C2508.82 2106.53 2505.92 2051.99 2501.32 1998.91C2494.24 1914.52 2486.72 1829.71 2524.3 1752.95C2559.99 1680.06 2642.53 1622.45 2736.69 1613.3C2870.68 1600.28 2989.35 1673.38 3102.65 1729.32C3111.59 1733.73 3120.6 1738.05 3129.69 1742.29C3267.08 1806.3 3421.19 1849.02 3576.5 1835.08C3742.07 1820.22 3906.77 1728.61 3952.91 1590.53" stroke="#F4F4F4" stroke-miterlimit="10"/>
<path d="M516.219 2278.08C591.467 2189.68 674.34 2106 763.586 2027.72C803.241 1992.94 845.174 1958.58 896.691 1937.34C1000.1 1894.72 1118.64 1912.73 1225.81 1950.48C1255.09 1960.75 1283.52 1972.47 1310.58 1984.84C1426.78 2038.06 1535.45 2103.27 1633.54 2178.33C1730.69 2252.71 1818.09 2339.16 1933.39 2395.82C2004.6 2430.82 2087.05 2456.3 2168.95 2462.62C2239.98 2468.03 2311.63 2458.06 2371.54 2425.42C2382.28 2419.58 2392.48 2413.1 2402.1 2406.04C2461.41 2362.5 2496.28 2298.5 2513.06 2232.87C2518.42 2211.87 2522.08 2190.67 2524.51 2169.51C2530.88 2114.23 2529.88 2058.18 2527.82 2003.82C2524.84 1917.23 2524.57 1831.89 2566.2 1755.08C2603.85 1685.6 2683.21 1629.7 2775.02 1620.34C2905.68 1607.02 3021.85 1675.36 3132.53 1726.73C3141.26 1730.77 3150.06 1734.74 3158.93 1738.61C3293.01 1797.16 3441.98 1834.44 3590.82 1817.6C3749.5 1799.67 3905.92 1708.54 3948.22 1573.75" stroke="#EEEEEE" stroke-miterlimit="10"/>
<path d="M534.794 2309.13C608.594 2222.24 690.345 2140.31 778.609 2064.03C817.818 2030.14 859.279 1996.75 909.86 1975.87C1011.35 1933.97 1127.41 1949.78 1232.83 1984.72C1261.65 1994.21 1289.69 2005.12 1316.44 2016.66C1431.21 2066.37 1538.94 2127.99 1636.62 2199.42C1733.36 2270.21 1820.58 2353.27 1934.46 2407.8C2008.23 2443.13 2092.68 2469.64 2176.94 2477.01C2249.85 2483.32 2323.98 2474 2385.96 2441.13C2397.09 2435.24 2407.66 2428.68 2417.66 2421.49C2479.25 2377.14 2514.93 2311.3 2532.83 2243.73C2538.54 2222.14 2542.57 2200.35 2545.44 2178.64C2552.95 2121.92 2553.84 2064.36 2554.31 2008.71C2555.45 1919.92 2562.28 1834.13 2608.1 1757.2C2647.46 1691.11 2723.9 1636.93 2813.35 1627.37C2940.68 1613.75 3054.35 1677.33 3162.42 1724.13C3170.94 1727.81 3179.52 1731.42 3188.18 1734.93C3318.95 1788.03 3462.77 1819.85 3605.15 1800.11C3756.92 1779.11 3905.06 1688.46 3943.53 1556.95" stroke="#E9E9E9" stroke-miterlimit="10"/>
<path d="M553.37 2340.18C625.715 2254.81 706.355 2174.63 793.631 2100.34C832.399 2067.34 873.38 2034.92 923.018 2014.4C1022.6 1973.23 1136.17 1986.85 1239.84 2018.96C1268.22 2027.68 1295.86 2037.77 1322.29 2048.49C1435.63 2094.68 1542.43 2152.73 1639.7 2220.53C1736.02 2287.72 1823.11 2367.33 1935.51 2419.79C2011.87 2455.44 2098.3 2483 2184.9 2491.42C2259.71 2498.61 2336.31 2489.95 2400.35 2456.85C2411.87 2450.92 2422.84 2444.27 2433.2 2436.94C2497.08 2391.79 2533.57 2324.1 2552.59 2254.6C2558.64 2232.42 2563.05 2210.04 2566.35 2187.78C2575.01 2129.61 2577.65 2070.54 2580.8 2013.62C2585.83 1922.62 2599.82 1836.42 2649.98 1759.34C2690.82 1696.59 2764.57 1644.19 2851.68 1634.42C2975.67 1620.5 3086.84 1679.31 3192.29 1721.53C3200.6 1724.86 3208.98 1728.1 3217.41 1731.26C3344.87 1778.89 3483.54 1805.27 3619.45 1782.64C3764.33 1758.55 3904.19 1668.39 3938.83 1540.16" stroke="#E3E3E3" stroke-miterlimit="10"/>
<path d="M571.95 2371.23C642.842 2287.37 722.37 2208.94 808.658 2136.65C846.981 2104.53 887.485 2073.09 936.192 2052.92C1033.86 2012.49 1144.95 2023.9 1246.86 2053.2C1274.79 2061.15 1302.04 2070.42 1328.16 2080.32C1440.07 2122.99 1545.92 2177.46 1642.79 2241.64C1738.7 2305.23 1825.7 2381.33 1936.57 2431.78C2015.54 2467.72 2103.93 2496.36 2192.89 2505.83C2269.59 2513.9 2348.66 2505.9 2414.78 2472.58C2426.69 2466.59 2438.03 2459.86 2448.77 2452.4C2514.93 2406.45 2552.23 2336.91 2572.37 2265.48C2578.77 2242.71 2583.54 2219.73 2587.28 2196.92C2597.08 2137.31 2601.61 2076.72 2607.29 2018.53C2616.41 1925.32 2637.19 1838.75 2691.89 1761.48C2733.96 1702.04 2805.27 1651.45 2890.01 1641.47C3010.67 1627.25 3119.34 1681.31 3222.17 1718.95C3230.28 1721.92 3238.45 1724.8 3246.65 1727.6C3370.8 1769.78 3504.33 1790.7 3633.77 1765.17C3771.75 1738.01 3903.33 1648.34 3934.14 1523.39" stroke="#DEDEDE" stroke-miterlimit="10"/>
<path d="M590.525 2402.28C659.968 2319.94 738.376 2243.26 823.68 2172.96C861.558 2141.73 901.586 2111.27 949.355 2091.45C1045.1 2051.75 1153.72 2060.96 1253.87 2087.44C1281.35 2094.61 1308.21 2103.07 1334.01 2112.15C1444.49 2151.3 1549.41 2202.19 1645.87 2262.75C1741.36 2322.75 1828.32 2395.28 1937.63 2443.77C2019.23 2479.98 2109.55 2509.72 2200.86 2520.24C2279.45 2529.2 2361 2521.85 2429.18 2488.3C2441.48 2482.27 2453.21 2475.45 2464.32 2467.86C2532.76 2421.11 2570.88 2349.72 2592.13 2276.36C2598.88 2253.01 2604.02 2229.43 2608.2 2206.07C2619.15 2145.02 2625.55 2082.91 2633.78 2023.44C2646.99 1928.03 2674.37 1841.07 2733.78 1763.62C2776.87 1707.44 2845.95 1658.71 2928.34 1648.53C3045.66 1634.01 3151.84 1683.3 3252.05 1716.37C3259.96 1718.98 3267.91 1721.5 3275.9 1723.93C3396.73 1760.66 3525.12 1776.12 3648.09 1747.7C3779.17 1717.47 3902.48 1628.28 3929.45 1506.61" stroke="#D8D8D8" stroke-miterlimit="10"/>
<path d="M609.101 2433.33C677.089 2352.5 754.386 2277.56 838.702 2209.27C876.134 2178.93 915.686 2149.44 962.519 2129.98C1056.35 2091 1162.43 2098.19 1260.88 2121.68C1287.91 2128.12 1314.38 2135.71 1339.87 2143.97C1448.91 2179.6 1552.9 2226.92 1648.96 2283.85C1744.03 2340.26 1830.98 2409.16 1938.69 2455.76C2022.94 2492.2 2115.17 2523.07 2208.84 2534.64C2289.33 2544.48 2373.35 2537.8 2443.59 2504.02C2456.28 2497.94 2468.4 2491.04 2479.87 2483.32C2550.6 2435.75 2589.53 2362.52 2611.91 2287.22C2619 2263.28 2624.51 2239.12 2629.13 2215.21C2641.21 2152.71 2649.51 2089.09 2660.28 2028.34C2677.6 1930.72 2711.37 1843.35 2775.68 1765.75C2819.6 1712.75 2886.64 1665.96 2966.67 1655.56C3080.66 1640.74 3184.34 1685.27 3281.94 1713.77C3289.63 1716.02 3297.37 1718.18 3305.14 1720.25C3422.66 1751.52 3545.9 1761.54 3662.41 1730.22C3786.59 1696.91 3901.62 1608.2 3924.76 1489.82" stroke="#D2D2D2" stroke-miterlimit="10"/>
<path d="M627.676 2464.38C694.21 2385.07 770.391 2311.88 853.724 2245.57C890.716 2216.13 929.792 2187.61 975.683 2168.51C1067.59 2130.26 1171.21 2135.26 1267.89 2155.91C1294.46 2161.59 1320.55 2168.36 1345.73 2175.79C1453.33 2207.91 1556.39 2251.64 1652.04 2304.95C1746.69 2357.76 1833.67 2423 1939.74 2467.74C2026.66 2504.39 2120.79 2536.42 2216.81 2549.04C2299.18 2559.76 2385.67 2553.74 2457.99 2519.74C2471.07 2513.6 2483.57 2506.62 2495.42 2498.77C2568.43 2450.4 2608.17 2375.32 2631.66 2298.08C2639.1 2273.56 2644.99 2248.81 2650.05 2224.34C2663.27 2160.4 2673.45 2095.26 2686.77 2033.24C2708.19 1933.41 2748.16 1845.57 2817.57 1767.88C2862.14 1717.99 2927.31 1673.21 3004.99 1662.6C3115.65 1647.48 3216.83 1687.25 3311.81 1711.17C3319.3 1713.06 3326.82 1714.86 3334.37 1716.57C3448.58 1742.39 3566.68 1746.95 3676.72 1712.74C3794 1676.35 3900.75 1588.12 3920.06 1473.03" stroke="#CDCDCD" stroke-miterlimit="10"/>
<path d="M646.251 2495.43C711.337 2417.63 786.401 2346.19 868.746 2281.88C905.293 2253.33 943.892 2225.78 988.846 2207.04C1078.84 2169.51 1179.98 2172.33 1274.9 2190.16C1301.03 2195.07 1326.71 2201.01 1351.58 2207.63C1457.76 2236.22 1559.87 2276.39 1655.12 2326.07C1749.35 2375.28 1836.38 2436.81 1940.79 2479.73C2030.4 2516.56 2126.41 2549.78 2224.79 2563.45C2309.05 2575.06 2398.01 2569.7 2472.4 2535.46C2485.87 2529.28 2498.75 2522.21 2510.97 2514.23C2586.27 2465.06 2626.83 2388.13 2651.43 2308.96C2659.22 2283.85 2665.48 2258.5 2670.97 2233.49C2685.33 2168.1 2697.41 2101.46 2713.26 2038.15C2738.79 1936.12 2784.76 1847.72 2859.46 1770.02C2904.51 1723.16 2968 1680.47 3043.32 1669.66C3150.64 1654.24 3249.33 1689.24 3341.69 1708.59C3348.98 1710.12 3356.28 1711.56 3363.62 1712.91C3474.51 1733.27 3587.47 1732.38 3691.04 1695.28C3801.43 1655.81 3899.9 1568.07 3915.37 1456.25" stroke="#C7C7C7" stroke-miterlimit="10"/>
<path d="M664.827 2526.48C728.458 2450.2 802.411 2380.51 883.768 2318.19C919.869 2290.52 957.993 2263.95 1002.01 2245.56C1090.08 2208.77 1188.75 2209.39 1281.91 2224.39C1307.6 2228.53 1332.89 2233.65 1357.44 2239.45C1462.18 2264.53 1563.37 2301.12 1658.2 2347.17C1752.01 2392.79 1839.12 2450.57 1941.85 2491.72C2034.17 2528.69 2132.03 2563.14 2232.76 2577.86C2318.91 2590.35 2410.35 2585.65 2486.8 2551.18C2500.66 2544.95 2513.93 2537.8 2526.52 2529.68C2604.1 2479.71 2645.47 2400.93 2671.2 2319.83C2679.33 2294.13 2685.96 2268.19 2691.89 2242.63C2707.39 2175.8 2721.37 2107.64 2739.74 2043.06C2769.4 1938.82 2821.14 1849.72 2901.35 1772.15C2946.75 1728.24 3008.67 1687.72 3081.64 1676.7C3185.63 1660.98 3281.82 1691.22 3371.56 1706C3378.63 1707.16 3385.73 1708.25 3392.84 1709.23C3500.43 1724.14 3608.24 1717.79 3705.34 1677.8C3808.82 1635.25 3899.02 1548 3910.66 1439.47" stroke="#C2C2C2" stroke-miterlimit="10"/>
<path d="M683.402 2557.53C745.58 2482.76 818.417 2414.82 898.79 2354.5C934.446 2327.72 972.093 2302.12 1015.17 2284.09C1101.33 2248.03 1197.53 2246.46 1288.92 2258.63C1314.16 2262 1339.06 2266.3 1363.3 2271.28C1466.6 2292.84 1566.86 2325.84 1661.29 2368.28C1754.68 2410.3 1841.88 2464.29 1942.9 2503.7C2037.95 2540.79 2137.65 2576.5 2240.74 2592.27C2328.78 2605.64 2422.69 2601.59 2501.21 2566.91C2515.46 2560.63 2529.11 2553.39 2542.07 2545.15C2621.94 2494.36 2664.12 2413.74 2690.96 2330.7C2699.44 2304.42 2706.44 2277.88 2712.81 2251.77C2729.46 2183.5 2745.48 2113.86 2766.23 2047.97C2800.25 1941.57 2857.31 1851.58 2943.24 1774.29C2988.88 1733.24 3049.36 1694.97 3119.97 1683.75C3220.63 1667.73 3314.32 1693.2 3401.44 1703.41C3408.31 1704.21 3415.2 1704.94 3422.09 1705.56C3526.36 1715.01 3629.03 1703.21 3719.66 1660.32C3816.25 1614.7 3898.17 1527.93 3905.97 1422.68" stroke="#BCBCBC" stroke-miterlimit="10"/>
<path d="M701.978 2588.58C762.706 2515.33 834.427 2449.13 913.813 2390.8C949.023 2364.92 986.199 2340.3 1028.34 2322.62C1112.58 2287.29 1206.3 2283.52 1295.94 2292.88C1320.73 2295.47 1345.23 2298.95 1369.15 2303.11C1471.03 2321.15 1570.35 2350.59 1664.37 2389.39C1757.35 2427.82 1844.66 2477.98 1943.97 2515.7C2041.77 2552.84 2143.28 2589.86 2248.72 2606.68C2338.65 2620.94 2435.04 2617.55 2515.63 2582.63C2530.26 2576.3 2544.3 2568.98 2557.63 2560.61C2639.78 2509.02 2682.78 2426.55 2710.74 2341.57C2719.56 2314.71 2726.93 2287.58 2733.74 2260.92C2751.53 2191.19 2769.45 2120.05 2792.73 2052.88C2830.86 1944.29 2893.29 1853.25 2985.14 1776.43C3030.92 1738.14 3090.05 1702.23 3158.31 1690.8C3255.63 1674.48 3346.83 1695.19 3431.33 1700.83C3438 1701.27 3444.67 1701.63 3451.35 1701.89C3552.3 1705.89 3649.83 1688.64 3734 1642.85C3823.68 1594.15 3897.32 1507.86 3901.29 1405.9" stroke="#B7B7B7" stroke-miterlimit="10"/>
<path d="M720.553 2619.63C779.827 2547.89 850.432 2483.45 928.835 2427.11C963.604 2402.11 1000.3 2378.47 1041.5 2361.14C1123.82 2326.54 1215.08 2320.56 1302.95 2327.11C1327.3 2328.92 1351.4 2331.59 1375.01 2334.93C1475.45 2349.45 1573.84 2375.31 1667.46 2410.49C1760.01 2445.32 1847.46 2491.62 1945.02 2527.68C2045.6 2564.85 2148.9 2603.21 2256.69 2621.08C2348.52 2636.22 2447.38 2633.49 2530.03 2598.35C2545.05 2591.97 2559.48 2584.56 2573.18 2576.06C2657.62 2523.67 2701.42 2439.35 2730.5 2352.44C2739.67 2324.99 2747.41 2297.26 2754.65 2270.05C2773.59 2198.89 2793.4 2126.23 2819.22 2057.78C2861.46 1946.99 2929.04 1854.67 3027.04 1778.56C3072.88 1742.95 3130.73 1709.48 3196.64 1697.84C3290.62 1681.22 3379.32 1697.17 3461.21 1698.24C3467.67 1698.32 3474.12 1698.31 3480.58 1698.22C3578.22 1696.76 3670.6 1674.06 3748.31 1625.37C3831.1 1573.6 3896.46 1487.8 3896.6 1389.11" stroke="#B1B1B1" stroke-miterlimit="10"/>
<path d="M739.128 2650.68C796.948 2580.46 866.442 2517.76 943.857 2463.42C978.181 2439.31 1014.4 2416.64 1054.66 2399.67C1135.07 2365.8 1223.86 2357.61 1309.96 2361.35C1333.86 2362.39 1357.57 2364.24 1380.86 2366.76C1479.87 2377.76 1577.32 2400.05 1670.53 2431.59C1762.67 2462.83 1850.26 2505.24 1946.07 2539.66C2049.44 2576.81 2154.52 2616.56 2264.66 2635.49C2358.38 2651.51 2459.71 2649.44 2544.44 2614.07C2559.85 2607.64 2574.66 2600.15 2588.73 2591.52C2675.45 2538.32 2720.07 2452.15 2750.26 2363.31C2759.78 2335.28 2767.9 2306.96 2775.57 2279.19C2795.65 2206.59 2817.35 2132.42 2845.71 2062.68C2892.05 1949.69 2964.59 1855.83 3068.92 1780.69C3114.78 1747.66 3171.4 1716.73 3234.96 1704.88C3325.61 1687.96 3411.81 1699.15 3491.08 1695.64C3497.33 1695.36 3503.58 1695 3509.81 1694.55C3604.14 1687.63 3691.38 1659.47 3762.62 1607.9C3838.5 1553.05 3895.59 1467.72 3891.89 1372.32" stroke="#ABABAB" stroke-miterlimit="10"/>
<path d="M757.704 2681.73C814.075 2613.02 882.453 2552.07 958.879 2499.72C992.758 2476.51 1028.5 2454.81 1067.83 2438.2C1146.32 2405.05 1232.63 2394.65 1316.97 2395.59C1340.43 2395.85 1363.74 2396.88 1386.73 2398.59C1484.3 2406.07 1580.82 2424.77 1673.62 2452.7C1765.34 2480.34 1853.09 2518.81 1947.13 2551.65C2053.31 2588.72 2160.14 2629.92 2272.64 2649.89C2368.25 2666.8 2472.05 2665.39 2558.84 2629.78C2574.64 2623.31 2589.84 2615.73 2604.28 2606.97C2693.28 2552.97 2738.72 2464.95 2770.03 2374.18C2779.89 2345.55 2788.38 2316.65 2796.49 2288.33C2817.7 2214.28 2841.3 2138.6 2872.19 2067.59C2922.65 1952.39 2999.95 1856.68 3110.81 1782.83C3156.65 1752.29 3212.08 1723.99 3273.28 1711.93C3360.6 1694.71 3444.3 1701.13 3520.95 1693.06C3526.99 1692.42 3533.03 1691.69 3539.05 1690.88C3630.06 1678.51 3712.15 1644.9 3776.93 1590.43C3845.91 1532.5 3894.72 1447.66 3887.19 1355.54" stroke="#A6A6A6" stroke-miterlimit="10"/>
<path d="M776.279 2712.77C831.196 2645.59 898.458 2586.38 973.901 2536.03C1007.33 2513.71 1042.61 2492.98 1080.99 2476.73C1157.57 2444.31 1241.41 2431.69 1323.98 2429.83C1347 2429.31 1369.91 2429.53 1392.58 2430.41C1488.72 2434.38 1584.3 2449.5 1676.7 2473.8C1768 2497.85 1855.91 2532.37 1948.18 2563.63C2057.2 2600.57 2165.76 2643.27 2280.61 2664.29C2378.11 2682.08 2484.39 2681.33 2573.25 2645.5C2589.44 2638.98 2605.02 2631.32 2619.83 2622.43C2711.12 2567.62 2757.37 2477.76 2789.8 2385.05C2800 2355.83 2808.86 2326.34 2817.41 2297.47C2839.77 2221.98 2865.26 2144.79 2898.69 2072.49C2953.26 1955.1 3035.13 1857.19 3152.71 1784.96C3198.53 1756.81 3252.77 1731.24 3311.62 1718.97C3395.6 1701.45 3476.81 1703.11 3550.84 1690.46C3556.68 1689.46 3562.5 1688.38 3568.3 1687.2C3656 1669.37 3732.95 1630.31 3791.25 1572.94C3853.34 1511.94 3893.87 1427.59 3882.51 1338.75" stroke="#A0A0A0" stroke-miterlimit="10"/>
<path d="M794.854 2743.83C848.317 2678.15 914.468 2620.7 988.923 2572.34C1021.91 2550.91 1056.71 2531.15 1094.15 2515.26C1168.81 2483.57 1250.18 2468.61 1330.99 2464.07C1353.56 2462.74 1376.08 2462.19 1398.44 2462.25C1493.15 2462.69 1587.79 2474.24 1679.78 2494.91C1770.66 2515.37 1858.74 2545.9 1949.24 2575.62C2061.12 2612.37 2171.39 2656.63 2288.59 2678.7C2387.98 2697.38 2496.73 2697.29 2587.66 2661.23C2604.24 2654.66 2620.2 2646.91 2635.38 2637.89C2728.96 2582.28 2776.02 2490.57 2809.56 2395.92C2820.12 2366.12 2829.35 2336.03 2838.33 2306.61C2861.83 2229.67 2889.22 2150.98 2925.18 2077.4C2983.85 1957.81 3070.15 1857.31 3194.6 1787.1C3240.41 1761.25 3293.46 1738.49 3349.94 1726.02C3430.6 1708.2 3509.3 1705.1 3580.71 1687.88C3586.35 1686.52 3591.96 1685.07 3597.53 1683.53C3681.92 1660.25 3753.73 1615.74 3805.56 1555.48C3860.75 1491.4 3893 1407.53 3877.81 1321.97" stroke="#9B9B9B" stroke-miterlimit="10"/>
<path d="M813.435 2774.87C865.449 2710.72 930.478 2655.01 1003.95 2608.65C1036.5 2588.11 1070.81 2569.32 1107.32 2553.78C1180.06 2522.82 1258.95 2505.66 1338.01 2498.3C1360.13 2496.2 1382.26 2494.83 1404.3 2494.07C1497.57 2490.99 1591.28 2498.97 1682.87 2516.02C1773.33 2532.88 1861.58 2559.39 1950.3 2587.61C2065.05 2624.1 2177.01 2669.98 2296.57 2693.11C2397.85 2712.66 2509.08 2713.24 2602.07 2676.94C2619.04 2670.33 2635.39 2662.49 2650.94 2653.34C2746.8 2596.93 2794.67 2503.37 2829.34 2406.78C2840.24 2376.4 2849.84 2345.72 2859.26 2315.75C2883.91 2237.37 2913.18 2157.16 2951.67 2082.3C3014.46 1960.51 3105.04 1857.03 3236.51 1789.22C3282.34 1765.58 3334.14 1745.74 3388.28 1733.06C3465.59 1714.94 3541.81 1707.07 3610.6 1685.28C3616.03 1683.56 3621.42 1681.75 3626.78 1679.85C3707.86 1651.11 3774.52 1601.14 3819.89 1537.99C3868.17 1470.83 3892.15 1387.45 3873.12 1305.18" stroke="#959595" stroke-miterlimit="10"/>
<path d="M832.01 2805.93C882.57 2743.29 946.488 2689.33 1018.97 2644.96C1051.07 2625.31 1084.91 2607.5 1120.49 2592.31C1191.31 2562.08 1267.72 2542.72 1345.02 2532.55C1366.69 2529.67 1388.42 2527.48 1410.16 2525.9C1502 2519.31 1594.77 2523.71 1685.95 2537.13C1775.99 2550.39 1864.42 2572.87 1951.35 2599.6C2069.01 2635.77 2182.64 2683.35 2304.54 2707.52C2407.72 2727.96 2521.42 2729.19 2616.47 2692.67C2633.84 2686.01 2650.56 2678.08 2666.49 2668.8C2764.63 2611.58 2813.32 2516.18 2849.1 2417.66C2860.34 2386.69 2870.32 2355.42 2880.17 2324.9C2905.96 2245.07 2937.13 2163.35 2978.16 2087.22C3045.05 1963.22 3139.82 1856.33 3278.39 1791.37C3324.3 1769.84 3374.81 1753 3426.6 1740.12C3500.58 1721.7 3574.29 1709.07 3640.47 1682.7C3645.69 1680.62 3650.87 1678.45 3656.01 1676.19C3733.78 1642 3795.3 1586.58 3834.2 1520.53C3875.58 1450.3 3891.28 1367.4 3868.42 1288.41" stroke="#909090" stroke-miterlimit="10"/>
<path d="M850.586 2836.97C964.695 2694.94 1152.76 2601.06 1352.03 2566.78C1551.31 2532.51 1760.56 2554.65 1952.41 2611.58C2072.99 2647.36 2188.26 2696.7 2312.52 2721.92C2436.79 2747.14 2576.59 2745.18 2682.05 2684.25C2814.02 2608.01 2858.04 2464.01 2901.1 2334.04C2971.92 2120.3 3085.18 1893.01 3320.29 1793.5C3437.4 1743.93 3574.46 1731.52 3685.26 1672.51C3838.87 1590.71 3915.53 1418.52 3863.73 1271.61" stroke="#8A8A8A" stroke-miterlimit="10"/>
<path d="M-216.868 2207.65C-238.413 2060.75 -66.5549 1936.63 106.772 1913.81C280.095 1890.98 453.965 1938.08 625.7 1968.26C797.435 1998.45 990.659 2008.42 1134.12 1923.23C1317.52 1814.33 1359.95 1585.22 1548.63 1482.93C1695.69 1403.2 1887.11 1427.05 2037.79 1486.37C2122.98 1519.91 2195.41 1576.33 2276.84 1615.62C2646.11 1793.85 2671.01 2158.06 2984.74 2212.37C3324.43 2271.18 3508.75 2131.44 3572.86 2034.52C3654.98 1910.37 3791.91 1588.24 3456.39 1364.39C3320.08 1273.45 3185.52 1176.52 3085.24 1056.78C2935.11 877.5 2936.13 603.418 3128.11 455.276C3259.69 353.748 3461.77 316.626 3551.15 186.451C3611.23 98.9584 3603.02 -13.8411 3551.38 -105.088C3499.74 -196.335 3409.78 -268.496 3312.05 -327.02" stroke="#8A8A8A" stroke-miterlimit="10"/>
<path d="M-209.085 2214.98C-223.959 2063.87 -53.0381 1933.31 125.46 1907.33C299.684 1881.98 476.421 1928.7 648.177 1962.03C817.905 1994.96 1006.34 2009.89 1149.34 1932.46C1332 1833.37 1383.37 1615.9 1571.82 1514.95C1721.93 1434.96 1910.32 1449.83 2064.59 1501.68C2153.21 1531.47 2231.74 1584.65 2317.02 1624.51C2678.53 1793.5 2708.27 2145.88 3015.17 2199.44C3345.28 2256.94 3528.58 2124.69 3595.2 2029.32C3679.62 1908.47 3810.27 1598.1 3493.23 1376.8C3362.52 1285.56 3232.9 1186.78 3134.24 1067.77C2988.54 892.746 2987.22 628.418 3168.42 481.568C3293.78 379.966 3488.6 338.572 3577.61 210.078C3638.7 122.235 3634.94 11.0465 3589.82 -80.8831C3544.27 -173.668 3461.21 -249.929 3367.3 -312.75" stroke="#909090" stroke-miterlimit="10"/>
<path d="M-201.303 2222.31C-209.505 2066.99 -39.5315 1930.04 144.148 1900.86C319.278 1873.04 498.872 1919.3 670.659 1955.8C838.38 1991.43 1022.03 2011.37 1164.58 1941.69C1346.5 1852.42 1406.54 1646.22 1595.02 1546.98C1747.97 1466.44 1933.72 1472.52 2091.39 1517C2183.55 1543 2268.02 1592.99 2357.19 1633.4C2710.62 1793.56 2745.52 2133.7 3045.6 2186.53C3366.12 2242.72 3548.37 2117.96 3617.54 2024.14C3704.2 1906.57 3828.64 1607.77 3530.07 1389.22C3404.92 1297.62 3280.29 1197.04 3183.25 1078.77C3041.97 907.995 3038.3 653.34 3208.72 507.864C3327.89 406.132 3515.44 360.517 3604.06 233.708C3666.17 145.515 3666.89 35.8606 3628.25 -56.6695C3588.83 -151.07 3512.64 -231.353 3422.55 -298.473" stroke="#959595" stroke-miterlimit="10"/>
<path d="M-193.521 2229.64C-195.052 2070.1 -26.025 1926.81 162.842 1894.39C338.872 1864.16 521.323 1909.85 693.14 1949.56C858.849 1987.86 1037.72 2012.84 1179.81 1950.91C1361 1871.46 1429.86 1676.75 1618.21 1578.99C1774.13 1498.07 1957.28 1495.07 2118.2 1532.31C2213.97 1554.47 2304.27 1601.34 2397.37 1642.28C2742.39 1794 2782.77 2121.52 3076.03 2173.59C3386.97 2228.48 3568.14 2111.21 3639.87 2018.94C3728.73 1904.65 3847.07 1617.18 3566.9 1401.63C3447.27 1309.59 3328.07 1207.07 3232.25 1089.75C3095.97 922.903 3089.37 678.149 3249.02 534.147C3362.02 432.225 3541.91 382.273 3630.51 257.325C3693.38 168.653 3698.9 60.5881 3666.69 -32.4777C3633.42 -128.572 3564.07 -212.794 3477.8 -284.217" stroke="#9B9B9B" stroke-miterlimit="10"/>
<path d="M-185.738 2236.97C-180.598 2073.22 -12.5133 1923.63 181.53 1887.9C358.472 1855.33 543.764 1900.37 715.617 1943.32C879.309 1984.24 1053.4 2014.3 1195.04 1960.13C1375.48 1890.5 1453.19 1707.3 1641.4 1611.01C1800.3 1529.72 1980.96 1517.49 2144.99 1547.61C2244.48 1565.88 2340.48 1609.72 2437.54 1651.16C2773.91 1794.77 2820.01 2109.33 3106.45 2160.66C3407.81 2214.24 3587.86 2104.46 3662.21 2013.74C3753.21 1902.72 3865.55 1626.35 3603.74 1414.04C3489.58 1321.46 3375.57 1217.25 3281.24 1100.74C3149.54 938.058 3140.4 702.856 3289.31 560.43C3396.14 458.253 3568.65 404.162 3656.95 280.943C3720.77 191.886 3730.96 85.2468 3705.11 -8.28119C3678.06 -106.142 3615.49 -194.236 3533.04 -269.957" stroke="#A0A0A0" stroke-miterlimit="10"/>
<path d="M-177.951 2244.3C-166.144 2076.33 1.00357 1920.49 200.223 1881.43C378.081 1846.56 566.211 1890.85 738.104 1937.09C899.789 1980.58 1069.21 2016.01 1210.28 1969.35C1390.13 1909.85 1476.56 1737.87 1664.6 1643.03C1826.49 1561.38 2004.76 1539.78 2171.81 1562.93C2275.06 1577.23 2376.66 1618.13 2477.72 1660.04C2805.21 1795.86 2857.27 2097.15 3136.89 2147.73C3428.65 2200.01 3607.54 2097.71 3684.55 2008.55C3777.63 1900.78 3884.13 1635.25 3640.58 1426.46C3531.86 1333.26 3423.07 1227.45 3330.25 1111.73C3203.1 953.221 3191.41 727.449 3329.61 586.717C3430.28 484.207 3595.4 426.065 3683.4 304.56C3748.17 215.119 3763.12 109.845 3743.54 15.9195C3722.77 -83.7732 3666.91 -175.668 3588.28 -255.692" stroke="#A6A6A6" stroke-miterlimit="10"/>
<path d="M-170.168 2251.64C-151.69 2079.45 14.5254 1917.4 218.911 1874.95C397.696 1837.83 588.657 1881.29 760.581 1930.85C920.258 1976.88 1084.89 2017.53 1225.5 1978.57C1404.61 1928.95 1499.93 1768.47 1687.79 1675.05C1852.68 1593.06 2028.62 1561.94 2198.6 1578.24C2305.67 1588.51 2412.79 1626.58 2517.89 1668.93C2836.3 1797.24 2894.52 2084.98 3167.31 2134.81C3449.49 2185.77 3627.18 2090.95 3706.88 2003.36C3802 1898.83 3902.83 1643.87 3677.41 1438.87C3574.13 1344.95 3470.56 1237.65 3379.25 1122.73C3256.65 968.406 3242.36 751.931 3369.92 613.008C3464.42 510.093 3622.18 447.976 3709.85 328.186C3775.59 238.365 3795.36 134.4 3781.98 40.1242C3767.57 -61.4519 3718.34 -157.101 3643.53 -241.427" stroke="#ABABAB" stroke-miterlimit="10"/>
<path d="M-162.386 2258.97C-137.237 2082.56 28.0524 1914.35 237.599 1868.47C417.316 1829.13 611.108 1871.69 783.063 1924.61C940.749 1973.14 1100.56 2019.03 1240.73 1987.79C1419.09 1948.04 1523.32 1799.08 1710.99 1707.07C1878.89 1624.75 2052.53 1583.96 2225.41 1593.55C2336.31 1599.7 2448.9 1635.06 2558.07 1677.81C2867.21 1798.87 2931.76 2072.79 3197.74 2121.87C3470.34 2171.53 3646.79 2084.16 3729.22 1998.16C3826.32 1896.85 3921.69 1652.16 3714.25 1451.28C3616.39 1356.51 3518.03 1247.86 3428.25 1133.71C3310.18 983.586 3293.24 776.27 3410.22 639.287C3498.53 535.875 3648.96 469.878 3736.3 351.799C3803.01 261.602 3827.69 158.911 3820.42 64.3164C3812.45 -39.1779 3769.77 -138.542 3698.78 -227.167" stroke="#B1B1B1" stroke-miterlimit="10"/>
<path d="M-154.604 2266.3C-122.783 2085.68 41.5949 1911.34 256.292 1862C436.951 1820.48 633.574 1862.05 805.545 1918.38C961.244 1969.37 1116.24 2020.53 1255.97 1997.02C1433.56 1967.12 1546.73 1829.71 1734.18 1739.09C1905.11 1656.46 2076.46 1605.86 2252.21 1608.86C2366.97 1610.82 2484.96 1643.59 2598.24 1686.69C2897.97 1800.75 2969.01 2060.61 3228.16 2108.94C3491.17 2157.3 3666.36 2077.37 3751.55 1992.97C3850.59 1894.85 3940.74 1660.13 3751.08 1463.69C3658.65 1367.96 3565.49 1258.08 3477.25 1144.7C3363.68 998.793 3344.02 800.487 3450.51 665.578C3532.6 561.583 3675.76 491.802 3762.74 375.425C3830.44 284.861 3860.11 183.41 3858.84 88.5212C3857.43 -16.9214 3821.19 -119.975 3754.02 -212.898" stroke="#B7B7B7" stroke-miterlimit="10"/>
<path d="M-146.821 2273.63C-108.329 2088.8 55.1475 1908.37 274.98 1855.53C456.596 1811.87 656.051 1852.39 828.027 1912.15C981.75 1965.57 1131.9 2022.03 1271.2 2006.24C1448.03 1986.2 1570.16 1860.37 1757.38 1771.12C1931.34 1688.19 2100.4 1627.66 2279.01 1624.18C2397.63 1621.87 2521 1652.18 2638.42 1695.58C2928.6 1802.85 3006.27 2048.43 3258.59 2096.02C3512.03 2143.07 3685.89 2070.56 3773.89 1987.78C3874.82 1892.83 3960.04 1667.77 3787.92 1476.11C3700.96 1379.28 3612.95 1268.31 3526.25 1155.7C3417.16 1014.01 3394.7 824.571 3490.81 691.87C3566.61 587.196 3702.56 513.73 3789.18 399.051C3857.87 308.12 3892.63 207.896 3897.27 112.726C3902.5 5.32661 3872.61 -101.403 3809.25 -198.634" stroke="#BCBCBC" stroke-miterlimit="10"/>
<path d="M-139.039 2280.96C-93.8803 2091.92 68.7104 1905.44 293.668 1849.05C476.247 1803.28 678.538 1842.68 850.504 1905.91C1002.27 1961.72 1147.56 2023.51 1286.43 2015.46C1462.48 2005.26 1593.58 1891.04 1780.57 1803.13C1957.59 1719.92 2124.32 1649.34 2305.82 1639.49C2428.29 1632.83 2556.99 1660.82 2678.6 1704.46C2959.11 1805.15 3043.52 2036.24 3289.03 2083.09C3532.88 2128.84 3705.4 2063.72 3796.23 1982.59C3899.01 1890.78 3979.64 1675.05 3824.76 1488.53C3743.33 1390.45 3660.4 1278.54 3575.25 1166.69C3470.64 1029.24 3445.25 848.517 3531.12 718.157C3600.57 612.71 3729.39 535.663 3815.64 422.673C3885.33 331.379 3925.25 232.386 3935.71 136.927C3947.7 27.5703 3924.05 -82.8403 3864.51 -184.369" stroke="#C2C2C2" stroke-miterlimit="10"/>
<path d="M-131.251 2288.3C-79.4215 2095.03 82.2937 1902.55 312.366 1842.58C495.923 1794.72 701.056 1832.93 872.991 1899.68C1022.81 1957.84 1163.22 2024.99 1301.67 2024.69C1476.94 2024.31 1617.03 1921.73 1803.77 1835.16C1983.84 1751.68 2148.22 1670.94 2332.63 1654.8C2458.93 1643.75 2592.96 1669.53 2718.78 1713.35C2989.53 1807.64 3080.78 2024.07 3319.46 2070.17C3553.73 2114.6 3724.86 2056.87 3818.57 1977.4C3923.16 1888.7 3999.59 1682 3861.61 1500.94C3785.81 1401.48 3707.83 1288.79 3624.26 1177.68C3524.09 1044.48 3495.64 872.334 3571.42 744.444C3634.42 638.129 3756.23 557.604 3842.09 446.291C3912.79 354.642 3957.95 256.88 3974.15 161.123C3992.98 49.8271 3975.48 -64.277 3919.76 -170.108" stroke="#C7C7C7" stroke-miterlimit="10"/>
<path d="M-123.469 2295.63C-64.9678 2098.15 95.8873 1899.69 331.054 1836.1C515.599 1786.19 723.589 1823.14 895.473 1893.44C1043.37 1953.93 1178.87 2026.45 1316.9 2033.91C1491.39 2043.34 1640.48 1952.43 1826.96 1867.18C2010.1 1783.45 2172.09 1692.46 2359.43 1670.11C2489.54 1654.59 2628.88 1678.32 2758.96 1722.24C3019.85 1810.31 3117.92 2012.29 3349.89 2057.24C3574.46 2100.76 3744.29 2049.98 3840.91 1972.21C3947.27 1886.6 4019.92 1688.61 3898.44 1513.36C3828.43 1412.35 3755.23 1299.04 3673.27 1188.67C3577.51 1059.74 3545.84 896.037 3611.72 770.736C3668.14 663.461 3783.09 579.554 3868.55 469.917C3940.26 377.918 3990.72 281.405 4012.59 185.328C4038.36 72.1182 4026.91 -45.7098 3975.02 -155.84" stroke="#CDCDCD" stroke-miterlimit="10"/>
<path d="M-115.686 2302.96C-50.5139 2101.26 109.501 1896.87 349.742 1829.62C535.286 1777.68 746.143 1813.32 917.95 1887.2C1063.95 1949.98 1194.53 2027.89 1332.13 2043.13C1505.85 2062.36 1663.94 1983.15 1850.15 1899.19C2036.37 1815.24 2195.9 1713.9 2386.22 1685.42C2520.11 1665.38 2664.75 1687.2 2799.12 1731.11C3050.1 1813.13 3155.15 2000.1 3380.31 2044.31C3595.29 2086.52 3763.68 2043.05 3863.23 1967.01C3971.33 1884.44 4040.7 1694.9 3935.27 1525.76C3871.25 1423.06 3802.61 1309.3 3722.26 1199.65C3630.9 1075 3595.81 919.629 3652.02 797.014C3701.67 688.695 3809.94 601.5 3894.99 493.53C3967.74 401.186 4023.54 305.947 4051.02 209.52C4083.8 94.4268 4078.33 -27.1553 4030.25 -141.583" stroke="#D2D2D2" stroke-miterlimit="10"/>
<path d="M-107.904 2310.29C-36.0653 2104.38 123.131 1894.08 368.43 1823.14C554.982 1769.2 768.722 1803.47 940.426 1880.97C1084.54 1946.02 1210.19 2029.34 1347.35 2052.35C1520.31 2081.37 1687.41 2013.89 1873.34 1931.21C2062.65 1847.04 2219.66 1735.29 2413.02 1700.73C2550.65 1676.13 2700.58 1696.19 2839.3 1740C3080.28 1816.1 3192.4 1987.91 3410.73 2031.38C3616.13 2072.27 3783.03 2036.09 3885.56 1961.82C3995.37 1882.26 4061.99 1700.94 3972.1 1538.18C3914.35 1433.62 3849.97 1319.57 3771.25 1210.65C3684.26 1090.28 3645.55 943.151 3692.3 823.306C3734.99 713.876 3836.79 623.463 3921.42 517.156C3995.21 424.471 4056.41 330.536 4089.43 233.725C4129.31 116.796 4129.74 -8.58357 4085.48 -127.314" stroke="#D8D8D8" stroke-miterlimit="10"/>
<path d="M-100.122 2317.62C-21.6115 2107.49 136.776 1891.33 387.123 1816.67C574.7 1760.73 791.342 1793.57 962.913 1874.73C1105.17 1942.03 1225.87 2030.77 1362.6 2061.58C1534.79 2100.37 1710.89 2044.64 1896.55 1963.24C2088.96 1878.87 2243.4 1756.63 2439.84 1716.05C2581.18 1686.84 2736.38 1705.31 2879.48 1748.89C3110.45 1819.23 3229.67 1975.72 3441.17 2018.46C3636.99 2058.02 3802.39 2029.11 3907.91 1956.63C4019.4 1880.05 4083.86 1706.76 4008.94 1550.59C3957.84 1444.05 3897.32 1329.86 3820.26 1221.64C3737.62 1105.58 3695.06 966.63 3732.61 849.597C3768.1 739.009 3863.68 645.43 3947.88 540.782C4022.72 447.764 4089.35 355.165 4127.87 257.93C4174.91 139.208 4181.18 9.98362 4140.74 -113.046" stroke="#DEDEDE" stroke-miterlimit="10"/>
<path d="M-92.3391 2324.95C-7.15767 2110.61 150.436 1888.6 405.811 1810.19C594.422 1752.29 813.983 1783.65 985.39 1868.5C1125.82 1938.01 1241.54 2032.2 1377.82 2070.8C1549.27 2119.36 1734.38 2075.41 1919.74 1995.26C2115.26 1910.72 2267.06 1777.94 2466.64 1731.36C2611.65 1697.51 2772.12 1714.56 2919.65 1757.77C3140.55 1822.48 3266.91 1963.52 3471.59 2005.53C3657.84 2043.76 3821.7 2022.08 3930.24 1951.44C4043.39 1877.8 4106.31 1712.46 4045.78 1563.01C4001.78 1454.37 3944.63 1340.17 3869.26 1232.63C3790.94 1120.89 3744.3 990.097 3772.91 875.889C3800.92 764.122 3890.58 667.406 3974.33 564.408C4050.23 471.066 4122.32 379.832 4166.31 282.135C4220.55 161.668 4232.61 28.5554 4195.99 -98.7766" stroke="#E3E3E3" stroke-miterlimit="10"/>
<path d="M-84.5516 2332.29C7.30117 2113.72 164.127 1885.9 424.504 1803.72C614.159 1743.85 836.664 1773.7 1007.88 1862.26C1146.5 1933.96 1257.34 2033.4 1393.06 2080.02C1563.9 2138.07 1757.88 2106.19 1942.94 2027.28C2141.57 1942.58 2290.69 1799.21 2493.45 1746.67C2642.1 1708.15 2807.81 1723.97 2959.84 1766.65C3170.65 1825.85 3304.27 1950.97 3502.03 1992.6C3678.79 2029.19 3841 2015 3952.59 1946.24C4067.39 1875.49 4129.4 1718.12 4082.63 1575.42C4046.31 1464.61 3991.93 1350.48 3918.27 1243.62C3844.23 1136.2 3793.29 1013.58 3813.23 902.167C3833.44 789.242 3917.49 689.377 4000.79 588.021C4077.77 494.359 4155.33 404.525 4204.76 306.327C4266.26 184.162 4284.05 47.1096 4251.25 -84.5208" stroke="#E9E9E9" stroke-miterlimit="10"/>
<path d="M-76.7693 2339.62C21.7549 2116.84 177.823 1883.23 443.197 1797.24C633.912 1735.44 859.387 1763.71 1030.36 1856.03C1167.2 1929.91 1273.03 2034.88 1408.29 2089.24C1578.39 2157.11 1781.38 2136.98 1966.13 2059.3C2167.9 1974.46 2314.26 1820.45 2520.24 1761.98C2672.5 1718.76 2843.44 1733.56 3000.01 1775.54C3200.73 1829.34 3341.52 1938.79 3532.45 1979.67C3699.63 2014.96 3860.28 2007.89 3974.92 1941.05C4091.35 1873.17 4153.11 1723.89 4119.46 1587.84C4091.51 1474.85 4039.16 1360.81 3967.27 1254.61C3897.49 1151.54 3841.99 1037.17 3853.52 928.459C3865.61 814.432 3944.39 711.366 4027.23 611.647C4105.29 517.674 4188.32 429.27 4243.17 330.532C4311.96 206.721 4335.46 65.6814 4306.48 -70.2517" stroke="#EEEEEE" stroke-miterlimit="10"/>
<path d="M-68.9868 2346.95C36.2036 2119.96 191.544 1880.59 461.885 1790.77C653.67 1727.04 882.135 1753.7 1052.84 1849.79C1187.92 1925.83 1288.71 2036.34 1423.52 2098.47C1592.88 2176.15 1805.06 2168.09 1989.32 2091.32C2194.42 2006.7 2337.78 1841.68 2547.04 1777.29C2702.86 1729.35 2879.01 1743.39 3040.18 1784.42C3230.82 1832.95 3378.76 1926.62 3562.87 1966.75C3720.46 2000.73 3879.53 2000.73 3997.25 1935.86C4115.31 1870.79 4177.45 1729.92 4156.29 1600.25C4137.52 1485.19 4086.35 1371.16 4016.26 1265.6C3950.71 1166.88 3890.47 1060.88 3893.81 954.751C3897.44 839.731 3971.52 733.489 4053.67 635.274C4133.04 541.119 4221.34 454.058 4281.6 354.737C4357.7 229.327 4386.88 84.2489 4361.72 -55.9827" stroke="#F4F4F4" stroke-miterlimit="10"/>
<path d="M-61.2045 2354.28C50.6573 2123.07 205.435 1878.3 480.573 1784.29C673.546 1718.88 904.924 1743.66 1075.32 1843.56C1208.67 1921.74 1304.4 2037.81 1438.75 2107.69C1607.37 2195.2 1828.49 2198.77 2012.52 2123.34C2220.67 2038.46 2361.26 1862.89 2573.85 1792.61C2733.2 1739.92 2914.52 1753.49 3080.36 1793.31C3260.94 1836.67 3416.02 1914.43 3593.31 1953.82C3741.31 1986.5 3898.79 1993.53 4019.59 1930.67C4139.27 1868.39 4202.35 1736.39 4193.13 1612.67C4184.42 1495.76 4133.5 1381.54 4065.26 1276.59C4003.91 1182.24 3938.74 1084.77 3934.11 981.038C3928.94 865.184 3998.35 755.43 4080.12 658.895C4160.5 564.391 4254.37 478.872 4320.04 378.938C4403.46 251.977 4438.31 102.816 4416.97 -41.718" stroke="#F9F9F9" stroke-miterlimit="10"/>
<path d="M-53.4221 2361.61C65.111 2126.19 219.039 1875.39 499.267 1777.81C693.222 1710.28 927.759 1733.59 1097.8 1837.32C1229.46 1917.63 1320.08 2039.28 1453.99 2116.91C1621.87 2214.24 1851.92 2229.44 2035.72 2155.36C2246.93 2070.22 2384.69 1884.08 2600.66 1807.91C2763.51 1750.47 2949.97 1763.89 3120.54 1802.19C3291.12 1840.49 3453.28 1902.25 3623.74 1940.88C3762.16 1972.25 3918.04 1986.27 4041.93 1925.46C4163.23 1865.93 4227.71 1743.46 4229.97 1625.07C4232.23 1506.68 4180.59 1391.92 4114.27 1287.58C4057.07 1197.59 3986.85 1108.88 3974.42 1007.32C3960.15 890.832 4025.18 777.358 4106.57 682.504C4187.97 587.65 4287.41 503.712 4358.48 403.125C4449.24 274.657 4489.74 121.366 4472.22 -27.4663" stroke="white" stroke-miterlimit="10"/>
<path d="M1976.51 3238.48C1827.32 3160.62 1820.33 2969.84 1907.83 2841.56C1995.34 2713.27 2147.77 2628.44 2283.24 2534.41C2418.72 2440.38 2548.99 2319.55 2560.17 2171.84C2574.46 1983 2389.41 1811.56 2413.12 1623.39C2431.6 1476.73 2573.56 1365.79 2722.75 1303.86C2807.11 1268.84 2904.6 1256.55 2991.92 1227.62C3387.9 1096.43 3739.95 1308.23 3986.67 1135.94C4253.81 949.385 4240.19 740.625 4190.83 637.74C4127.6 505.959 3915.81 214.095 3498.81 294.503C3329.41 327.167 3155.57 354.944 2982.13 345.868C2722.47 332.282 2469.92 159.901 2453.35 -59.1622C2441.99 -209.299 2534.31 -365.454 2470.06 -505.79C2426.87 -600.113 2317.53 -665.379 2200.88 -688.582C2084.24 -711.789 1961.22 -697.835 1845.93 -670.23" stroke="white" stroke-miterlimit="10"/>
<path d="M1988.16 3237.96C1839.25 3153.07 1825.73 2958.87 1913.56 2825.21C1999.29 2694.75 2153.18 2607.79 2291.56 2515.72C2428.32 2424.73 2560.17 2310.16 2578.23 2167.6C2601.13 1985.4 2432.42 1815.37 2457.23 1628.2C2477.38 1479.37 2609.14 1364.79 2753.68 1295.82C2836.72 1256.2 2935.04 1237.88 3025.29 1206.77C3407.89 1074.89 3752.03 1276.1 3993.78 1107.83C4253.71 926.757 4246.38 723.354 4200.02 619.795C4141.27 488.566 3936.41 208.203 3533.36 278.053C3367.19 306.85 3194.73 330.208 3022.99 320.527C2770.02 306.694 2525.02 141.964 2502.88 -69.202C2487.56 -215.3 2571.38 -369.36 2508.45 -508.39C2465.57 -603.599 2360.51 -670.784 2247.32 -698.704C2133.07 -726.883 2010.59 -720.036 1893.72 -697.632" stroke="#FBFBFB" stroke-miterlimit="10"/>
<path d="M1999.81 3237.43C1851.19 3145.51 1831.17 2947.93 1919.29 2808.86C2003.31 2676.26 2158.55 2587.13 2299.89 2497.02C2437.88 2409.05 2571.36 2300.76 2596.29 2163.37C2627.8 1987.8 2474.93 1819.13 2501.34 1633.01C2522.77 1481.96 2644.75 1363.61 2784.62 1287.79C2866.38 1243.48 2965.48 1219.24 3058.67 1185.92C3428.04 1053.83 3764.12 1243.98 4000.91 1079.72C4253.62 904.141 4252.56 706.121 4209.22 601.862C4154.91 471.213 3956.84 202.172 3567.9 261.615C3404.88 286.528 3233.89 305.48 3063.83 295.199C2817.57 281.12 2580.03 123.988 2552.41 -79.2244C2533.09 -221.331 2608.45 -373.248 2546.83 -510.974C2504.27 -607.072 2403.44 -676.244 2293.74 -708.804C2181.85 -742.02 2059.95 -742.21 1941.5 -725.017" stroke="#F6F6F6" stroke-miterlimit="10"/>
<path d="M2011.46 3236.91C1863.12 3137.96 1836.65 2937.03 1925.02 2792.51C2007.38 2657.81 2163.89 2566.45 2308.22 2478.34C2447.41 2393.35 2582.55 2291.37 2614.36 2159.13C2654.48 1990.2 2517.75 1822.93 2545.45 1637.82C2568.38 1484.58 2680.35 1362.25 2815.56 1279.76C2896.05 1230.66 2995.91 1200.64 3092.05 1165.06C3448.36 1033.21 3776.2 1211.85 4008.03 1051.61C4253.54 881.514 4258.71 688.902 4218.42 583.917C4168.51 453.881 3977.1 195.96 3602.46 245.165C3442.48 266.177 3273.1 280.334 3104.7 269.858C2865.18 254.954 2634.96 105.953 2601.95 -89.2553C2578.59 -227.418 2645.15 -377.019 2585.23 -513.566C2542.71 -610.463 2446.34 -681.799 2340.19 -718.917C2230.58 -757.244 2109.33 -764.398 1989.3 -752.41" stroke="#F2F2F2" stroke-miterlimit="10"/>
<path d="M2023.11 3236.38C1875.06 3130.41 1842.17 2926.15 1930.74 2776.16C2011.51 2639.39 2169.19 2545.75 2316.54 2459.64C2456.89 2377.62 2593.73 2281.97 2632.42 2154.88C2681.15 1992.59 2560.6 1826.71 2589.56 1642.62C2614.02 1487.19 2715.9 1360.72 2846.5 1271.72C2925.71 1217.74 3026.34 1182.07 3125.43 1144.2C3468.83 1012.96 3788.29 1179.71 4015.16 1023.49C4253.45 858.881 4264.84 671.7 4227.62 565.968C4182.07 436.571 3997.15 189.54 3637 228.71C3479.96 245.787 3312.27 255.472 3145.55 244.512C2912.75 229.206 2689.76 87.8604 2651.48 -99.2993C2624.03 -233.569 2682.13 -380.903 2623.63 -516.171C2581.34 -613.937 2489.22 -687.45 2386.63 -729.039C2279.28 -772.558 2158.7 -786.598 2037.09 -779.816" stroke="#EEEEEE" stroke-miterlimit="10"/>
<path d="M2034.75 3235.86C1886.99 3122.86 1847.74 2915.3 1936.47 2759.82C2015.68 2621 2174.46 2525.03 2324.86 2440.95C2466.33 2361.87 2605.2 2272.65 2650.48 2150.64C2708.19 1995.09 2603.47 1830.51 2633.67 1647.42C2659.66 1489.81 2751.4 1359.04 2877.43 1263.68C2955.33 1204.74 3056.76 1163.54 3158.8 1123.34C3489.43 993.065 3800.37 1147.58 4022.27 995.384C4253.35 836.253 4270.93 654.523 4236.82 548.027C4195.58 419.295 4017.01 182.9 3671.55 212.259C3517.34 225.362 3351.44 230.623 3186.4 219.167C2960.32 203.476 2744.43 69.725 2701.01 -109.335C2669.38 -239.76 2719.12 -384.778 2662.01 -518.767C2619.97 -617.401 2532.08 -693.183 2433.05 -739.156C2327.95 -787.951 2208.06 -808.79 2084.88 -807.213" stroke="#E9E9E9" stroke-miterlimit="10"/>
<path d="M2046.4 3235.33C1898.92 3115.3 1853.35 2904.47 1942.2 2743.46C2019.91 2602.63 2179.69 2504.27 2333.19 2422.26C2475.75 2346.08 2616.43 2263.28 2668.54 2146.41C2734.92 1997.53 2646.38 1834.3 2677.79 1652.23C2705.35 1492.43 2786.83 1357.23 2908.38 1255.65C2984.93 1191.67 3087.22 1145.07 3192.18 1102.49C3510.19 973.482 3812.46 1115.46 4029.39 967.278C4253.27 813.633 4276.99 637.369 4246.01 530.086C4209.04 402.041 4036.68 176.001 3706.09 195.813C3554.62 204.893 3390.62 205.788 3227.25 193.83C3007.89 177.772 2798.96 51.555 2750.54 -119.366C2714.67 -245.989 2756.13 -388.657 2700.4 -521.359C2658.62 -620.866 2574.96 -698.998 2479.49 -749.265C2376.63 -803.421 2257.43 -830.974 2132.66 -834.607" stroke="#E5E5E5" stroke-miterlimit="10"/>
<path d="M2058.06 3234.8C1910.86 3107.75 1859.02 2893.66 1947.92 2727.11C2024.18 2584.28 2184.9 2483.49 2341.51 2403.57C2485.14 2330.27 2627.65 2253.92 2686.61 2142.16C2761.63 1999.97 2689.32 1838.09 2721.89 1657.04C2751.04 1495.04 2822.15 1355.3 2939.31 1247.61C3014.47 1178.53 3117.67 1126.64 3225.56 1081.63C3531.07 954.172 3824.54 1083.32 4036.52 939.164C4253.17 791.005 4283.01 620.223 4255.21 512.141C4222.45 384.809 4051.66 133.29 3740.64 179.362C3593.91 201.101 3429.8 180.961 3268.1 168.489C3055.45 152.086 2853.33 33.3464 2800.07 -129.401C2759.87 -252.262 2793.15 -392.541 2738.79 -523.955C2697.27 -624.335 2617.87 -704.903 2525.92 -759.382C2425.33 -818.985 2306.8 -853.17 2180.45 -862.004" stroke="#E1E1E1" stroke-miterlimit="10"/>
<path d="M2069.7 3234.28C1922.79 3100.2 1864.72 2882.87 1953.65 2710.77C2028.48 2565.95 2190.07 2462.69 2349.83 2384.88C2494.48 2314.44 2638.85 2244.56 2704.67 2137.93C2788.32 2002.41 2732.28 1841.9 2766 1661.85C2796.75 1497.67 2857.37 1353.29 2970.24 1239.59C3043.95 1165.34 3148.14 1108.27 3258.94 1060.78C3552.07 935.124 3836.63 1051.2 4043.64 911.058C4253.09 768.381 4289 603.102 4264.41 494.204C4235.82 367.598 4071.68 122.792 3775.19 162.92C3630.69 182.477 3468.97 156.151 3308.95 143.156C3103.02 126.429 2907.51 15.1201 2849.61 -139.428C2804.97 -258.561 2830.19 -396.425 2777.19 -526.543C2735.93 -627.799 2660.81 -710.877 2572.36 -769.487C2474.07 -834.615 2356.17 -875.348 2228.24 -889.388" stroke="#DCDCDC" stroke-miterlimit="10"/>
<path d="M2081.35 3233.75C1934.73 3092.65 1870.47 2872.1 1959.38 2694.42C2032.83 2547.63 2195.22 2441.85 2358.16 2366.19C2503.81 2298.56 2650.04 2235.19 2722.73 2133.69C2815 2004.85 2775.27 1845.7 2810.12 1666.66C2842.5 1500.29 2892.5 1351.2 3001.19 1231.55C3073.36 1152.09 3178.65 1089.95 3292.31 1039.92C3573.2 916.294 3848.71 1019.07 4050.76 882.948C4253 745.758 4294.94 585.991 4273.6 476.259C4249.12 350.395 4091.89 112.64 3809.73 146.47C3667.17 163.56 3508.15 131.35 3349.81 117.815C3150.59 100.786 2961.51 -3.12317 2899.14 -149.463C2849.94 -264.894 2867.25 -400.321 2815.57 -529.139C2774.6 -631.277 2703.81 -716.925 2618.79 -779.604C2522.86 -850.331 2405.54 -897.54 2276.03 -916.79" stroke="#D8D8D8" stroke-miterlimit="10"/>
<path d="M2093 3233.23C1946.65 3085.09 1876.26 2861.34 1965.1 2678.07C2037.21 2529.33 2200.34 2420.97 2366.48 2347.5C2513.12 2282.65 2661.22 2225.82 2740.79 2129.45C2841.67 2007.28 2818.28 1849.5 2854.23 1671.46C2888.25 1502.92 2927.52 1349.05 3032.12 1223.52C3102.7 1138.81 3209.19 1071.69 3325.69 1019.07C3594.44 897.67 3860.8 986.943 4057.88 854.838C4252.91 723.129 4300.85 568.884 4282.8 458.318C4262.38 333.206 4112.28 102.885 3844.28 130.024C3703.37 144.293 3547.33 106.566 3390.66 92.4785C3198.16 75.1683 3015.3 -21.3535 2948.67 -159.494C2894.78 -271.235 2904.31 -404.218 2853.97 -531.731C2813.3 -634.755 2746.86 -723.03 2665.23 -789.713C2571.72 -866.108 2454.91 -919.723 2323.82 -944.179" stroke="#D4D4D4" stroke-miterlimit="10"/>
<path d="M2104.65 3232.7C1958.59 3077.54 1882.1 2850.6 1970.83 2661.72C2041.63 2511.03 2205.43 2400.06 2374.81 2328.8C2522.4 2266.71 2672.39 2216.45 2758.86 2125.21C2868.32 2009.7 2861.32 1853.31 2898.34 1676.26C2934.04 1505.55 2962.44 1346.86 3063.06 1215.48C3131.98 1125.49 3239.77 1053.5 3359.07 998.205C3615.8 879.224 3872.89 954.807 4065.01 826.719C4252.82 700.497 4306.7 551.781 4292 440.364C4275.59 316.013 4132.53 136.257 3878.83 113.564C3739.46 101.097 3586.5 81.7822 3431.52 67.1288C3245.72 49.5593 3068.87 -39.5752 2998.21 -169.538C2939.47 -277.577 2941.4 -408.132 2892.36 -534.336C2851.99 -638.25 2789.97 -729.19 2711.67 -799.839C2620.66 -881.949 2504.28 -941.928 2371.62 -971.589" stroke="#CFCFCF" stroke-miterlimit="10"/>
<path d="M2116.3 3232.18C1970.52 3069.98 1887.97 2839.86 1976.56 2645.37C2046.07 2492.74 2210.51 2379.11 2383.13 2310.11C2531.66 2250.74 2683.55 2207.06 2776.91 2120.96C2894.95 2012.12 2904.37 1857.12 2942.45 1681.07C2979.84 1508.18 2997.26 1344.64 3093.99 1207.44C3161.17 1112.15 3270.39 1035.38 3392.44 977.348C3637.25 860.946 3885.27 922.998 4072.12 798.608C4253.02 678.184 4312.5 534.686 4301.19 422.423C4288.74 298.836 4151.36 127.025 3913.36 97.118C3776.19 79.8812 3625.67 57.0284 3472.36 41.7875C3293.27 23.9848 3122.2 -57.741 3047.73 -179.574C2983.98 -283.88 2978.48 -412.042 2930.74 -536.933C2890.69 -641.736 2833.15 -735.381 2758.09 -809.952C2669.66 -897.826 2553.64 -964.116 2419.4 -998.983" stroke="#CBCBCB" stroke-miterlimit="10"/>
<path d="M2127.95 3231.65C1982.46 3062.43 1893.9 2829.15 1982.28 2629.02C2050.55 2474.47 2215.57 2358.12 2391.46 2291.42C2540.92 2234.75 2694.7 2197.68 2794.98 2116.73C2921.58 2014.53 2947.46 1860.94 2986.56 1685.88C3025.67 1510.82 3032 1342.42 3124.93 1199.41C3190.3 1098.81 3301.07 1017.36 3425.82 956.5C3658.82 842.828 3897.35 890.879 4079.25 770.507C4252.93 655.565 4318.27 517.601 4310.4 404.49C4301.84 281.673 4170.21 117.31 3947.92 80.6761C3812.93 58.4324 3664.84 32.3008 3513.22 16.4551C3340.83 -1.55932 3175.32 -75.8202 3097.27 -189.6C3028.32 -290.114 3015.59 -415.942 2969.14 -539.52C2929.41 -645.218 2876.4 -741.58 2804.54 -820.061C2718.76 -913.727 2603.02 -986.299 2467.19 -1026.38" stroke="#C7C7C7" stroke-miterlimit="10"/>
<path d="M2139.6 3231.13C1994.39 3054.87 1899.86 2818.44 1988.01 2612.68C2055.06 2456.19 2220.62 2337.1 2399.79 2272.73C2550.16 2218.71 2705.85 2188.28 2813.05 2112.49C2948.2 2016.93 2990.55 1864.76 3030.68 1690.69C3071.52 1513.46 3066.66 1340.18 3155.87 1191.38C3219.37 1085.46 3331.83 999.428 3459.21 935.647C3680.49 824.839 3909.44 858.751 4086.37 742.396C4252.83 632.932 4323.98 500.506 4319.59 386.545C4314.9 264.488 4189.13 107.08 3982.46 64.2254C3849.7 36.6983 3704.01 7.58582 3554.07 -8.88634C3388.39 -27.0865 3228.22 -93.8046 3146.8 -199.636C3072.46 -296.27 3052.71 -419.857 3007.53 -542.113C2968.14 -648.704 2919.71 -747.805 2850.96 -830.17C2767.93 -929.655 2652.38 -1008.49 2514.98 -1053.76" stroke="#C2C2C2" stroke-miterlimit="10"/>
<path d="M2151.24 3230.6C2006.32 3047.33 1905.86 2807.74 1993.74 2596.33C2059.58 2437.93 2225.64 2316.03 2408.11 2254.04C2559.39 2202.65 2716.98 2178.87 2831.1 2108.25C2974.81 2019.32 3033.66 1868.58 3074.78 1695.49C3117.38 1516.1 3101.23 1337.96 3186.8 1183.34C3248.37 1072.09 3362.66 981.591 3492.57 914.786C3702.24 806.963 3921.5 826.606 4093.48 714.282C4252.71 610.287 4329.62 483.404 4328.78 368.6C4327.88 247.299 4208.19 96.3492 4017 47.7751C3886.55 14.6364 3743.16 -17.107 3594.91 -34.2272C3435.92 -52.5915 3280.9 -111.655 3196.32 -209.671C3116.4 -302.292 3089.84 -423.779 3045.92 -544.713C3006.88 -652.208 2963.08 -754.039 2897.4 -840.292C2817.19 -945.605 2701.75 -1030.68 2562.76 -1081.17" stroke="#BEBEBE" stroke-miterlimit="10"/>
<path d="M2162.89 3230.08C2018.26 3039.77 1911.9 2797.04 1999.46 2579.98C2064.13 2419.66 2230.67 2294.92 2416.42 2235.35C2568.61 2186.55 2728.12 2169.45 2849.16 2104.01C3001.43 2021.69 3076.79 1872.41 3118.88 1700.3C3163.28 1518.76 3135.73 1335.74 3217.73 1175.31C3277.32 1058.74 3393.59 963.887 3525.94 893.934C3724.11 789.199 3933.56 794.461 4100.6 686.176C4252.6 587.641 4335.23 466.301 4337.97 350.663C4340.83 230.114 4227.52 85.1517 4051.54 31.3331C3923.6 -7.79314 3782.31 -41.7613 3635.76 -59.5597C3483.46 -78.0579 3333.42 -129.328 3245.85 -219.698C3160.15 -308.137 3126.98 -427.688 3084.3 -547.296C3045.63 -655.694 3006.51 -760.255 2943.83 -850.392C2866.52 -961.541 2751.11 -1052.86 2610.55 -1108.55" stroke="#BABABA" stroke-miterlimit="10"/>
<path d="M2174.54 3229.55C2030.19 3032.22 1917.98 2786.35 2005.19 2563.63C2068.71 2401.4 2235.68 2273.77 2424.76 2216.66C2577.83 2170.42 2739.13 2159.82 2867.23 2099.77C3027.88 2023.79 3119.95 1876.24 3163 1705.1C3209.2 1521.41 3170.18 1333.52 3248.67 1167.27C3306.21 1045.38 3424.65 946.305 3559.33 873.072C3746.08 771.518 3945.38 762.035 4107.72 658.057C4252.27 564.745 4340.79 449.172 4347.17 332.709C4353.74 212.89 4247.21 73.5093 4086.09 14.874C3960.97 -30.6632 3821.47 -66.4025 3676.62 -84.9094C3531 -103.516 3385.82 -146.824 3295.39 -229.742C3203.73 -313.783 3164.14 -431.62 3122.7 -549.901C3084.41 -659.202 3050 -766.484 2990.26 -860.518C2915.94 -977.495 2800.49 -1075.06 2658.34 -1135.96" stroke="#B5B5B5" stroke-miterlimit="10"/>
<path d="M2186.19 3229.03C2042.12 3024.67 1924.1 2775.67 2010.92 2547.28C2073.31 2383.14 2240.69 2252.57 2433.08 2197.97C2587.05 2154.27 2750.32 2150.43 2885.28 2095.53C3054.55 2026.19 3163.12 1880.08 3207.11 1709.92C3255.14 1524.07 3204.57 1331.34 3279.61 1159.24C3335.07 1032.04 3455.84 928.895 3592.7 852.224C3768.16 753.931 3957.46 729.912 4114.84 629.956C4252.18 542.126 4346.29 432.043 4356.37 314.777C4366.6 195.679 4267.4 61.5385 4120.64 -1.56369C3998.76 -53.9653 3860.61 -90.9877 3717.46 -110.238C3578.53 -128.926 3438.12 -164.082 3344.91 -239.764C3247.15 -319.153 3201.3 -435.534 3161.08 -552.485C3123.18 -662.697 3093.53 -772.684 3036.69 -870.618C2965.41 -993.418 2849.84 -1097.24 2706.12 -1163.34" stroke="#B1B1B1" stroke-miterlimit="10"/>
<path d="M2197.84 3228.5C2054.06 3017.11 1930.26 2764.99 2016.65 2530.93C2077.94 2364.88 2245.7 2231.34 2441.41 2179.28C2596.28 2138.08 2761.51 2141.03 2903.35 2091.29C3081.22 2028.59 3206.7 1883.99 3251.22 1714.72C3301.55 1526.82 3238.92 1329.16 3310.55 1151.2C3363.88 1018.69 3487.21 911.654 3626.08 831.362C3790.35 736.396 3969.56 697.775 4121.97 601.841C4252.09 519.497 4351.75 414.884 4365.57 296.827C4379.43 178.424 4288.22 49.304 4155.19 -18.0189C4037.15 -77.7558 3899.75 -115.547 3758.32 -135.588C3626.06 -154.328 3490.4 -181.116 3394.45 -249.809C3290.47 -324.251 3238.74 -439.53 3199.48 -555.09C3162.23 -666.269 3137.13 -778.888 3083.13 -880.744C3014.96 -1009.36 2899.22 -1119.44 2753.92 -1190.75" stroke="#ADADAD" stroke-miterlimit="10"/>
<path d="M2209.49 3227.98C2065.99 3009.56 1936.85 2754.43 2022.37 2514.59C2082.85 2346.7 2250.7 2210.06 2449.73 2160.59C2605.5 2121.87 2772.69 2131.64 2921.41 2087.06C3107.89 2030.99 3249.72 1887.81 3295.33 1719.53C3347.33 1529.47 3273.22 1327.02 3341.48 1143.17C3392.65 1005.37 3518.77 894.625 3659.46 810.51C3812.65 718.917 3981.64 665.652 4129.09 573.735C4252 496.874 4357.16 397.717 4374.77 278.891C4392.21 161.166 4309.8 36.9837 4189.74 -34.4648C4076.29 -101.982 3938.87 -140.054 3799.18 -160.924C3673.57 -179.69 3542.72 -197.89 3443.99 -259.839C3333.72 -329.024 3275.82 -443.426 3237.88 -557.682C3200.94 -669.747 3180.75 -785.056 3129.57 -890.853C3064.56 -1025.26 2948.59 -1141.62 2801.71 -1218.14" stroke="#A8A8A8" stroke-miterlimit="10"/>
<path d="M2221.14 3227.45C2077.92 3002.01 1942.68 2743.65 2028.1 2498.23C2087.22 2328.37 2255.7 2188.74 2458.05 2141.89C2614.72 2105.63 2783.87 2122.24 2939.47 2082.81C3134.56 2033.39 3292.73 1891.62 3339.44 1724.34C3393.12 1532.1 3307.48 1324.88 3372.42 1135.14C3421.39 992.054 3550.6 877.833 3692.84 789.653C3835.08 701.473 3993.73 633.519 4136.22 545.62C4251.92 474.245 4362.53 380.514 4383.97 260.945C4404.97 143.873 4332.24 24.7406 4224.29 -50.9155C4116.34 -126.572 3977.97 -164.514 3840.03 -186.265C3721.07 -205.023 3595.14 -214.423 3493.52 -269.875C3376.98 -333.474 3312.9 -447.323 3276.27 -560.278C3239.64 -673.233 3224.4 -791.212 3176 -900.971C3114.19 -1041.15 2997.96 -1163.82 2849.5 -1245.54" stroke="#A4A4A4" stroke-miterlimit="10"/>
</g>
</g>
<defs>
<clipPath id="clip0_72_3">
<rect width="3840" height="2160" fill="white"/>
</clipPath>
</defs>
</svg>
